<svg width="16" height="17" viewBox="0 0 16 17" fill="none" xmlns="http://www.w3.org/2000/svg">
<path fill-rule="evenodd" clip-rule="evenodd" d="M4.70183 0.518581C5.55492 0.479308 5.82692 0.470581 8.00002 0.470581C10.1731 0.470581 10.4451 0.480036 11.2975 0.518581C12.1499 0.557126 12.7317 0.693127 13.2408 0.890217C13.7739 1.09167 14.2575 1.40658 14.6575 1.81385C15.0648 2.21313 15.379 2.69604 15.5797 3.22985C15.7775 3.73894 15.9128 4.32076 15.952 5.17167C15.9913 6.02622 16 6.29822 16 8.47058C16 10.6437 15.9906 10.9157 15.952 11.7688C15.9135 12.6197 15.7775 13.2015 15.5797 13.7106C15.3789 14.2445 15.0642 14.7282 14.6575 15.128C14.2575 15.5353 13.7739 15.8495 13.2408 16.0502C12.7317 16.248 12.1498 16.3833 11.2989 16.4226C10.4451 16.4619 10.1731 16.4706 8.00002 16.4706C5.82692 16.4706 5.55492 16.4611 4.70183 16.4226C3.85092 16.384 3.2691 16.248 2.76001 16.0502C2.22613 15.8495 1.74242 15.5348 1.34255 15.128C0.935552 14.7285 0.620594 14.245 0.419638 13.7113C0.222546 13.2022 0.0872729 12.6204 0.0480001 11.7695C0.00872728 10.9149 0 10.6429 0 8.47058C0 6.29749 0.00945456 6.02549 0.0480001 5.17313C0.0865457 4.32076 0.222546 3.73894 0.419638 3.22985C0.620891 2.69609 0.936089 2.21263 1.34328 1.81313C1.74258 1.40622 2.2258 1.09127 2.75928 0.890217C3.26837 0.693127 3.85019 0.557854 4.7011 0.518581H4.70183ZM11.2328 1.95858C10.3891 1.92004 10.136 1.91204 8.00002 1.91204C5.86402 1.91204 5.61092 1.92004 4.76729 1.95858C3.98692 1.99422 3.56365 2.1244 3.28146 2.23422C2.90837 2.37967 2.64146 2.55204 2.36146 2.83204C2.09604 3.09026 1.89177 3.4046 1.76364 3.75204C1.65382 4.03422 1.52364 4.45749 1.488 5.23785C1.44946 6.08149 1.44146 6.33458 1.44146 8.47058C1.44146 10.6066 1.44946 10.8597 1.488 11.7033C1.52364 12.4837 1.65382 12.9069 1.76364 13.1891C1.89164 13.536 2.09601 13.8509 2.36146 14.1091C2.61964 14.3746 2.93455 14.5789 3.28146 14.7069C3.56365 14.8168 3.98692 14.9469 4.76729 14.9826C5.61092 15.0211 5.86329 15.0291 8.00002 15.0291C10.1368 15.0291 10.3891 15.0211 11.2328 14.9826C12.0131 14.9469 12.4364 14.8168 12.7186 14.7069C13.0917 14.5615 13.3586 14.3891 13.6386 14.1091C13.904 13.8509 14.1084 13.536 14.2364 13.1891C14.3462 12.9069 14.4764 12.4837 14.512 11.7033C14.5506 10.8597 14.5586 10.6066 14.5586 8.47058C14.5586 6.33458 14.5506 6.08149 14.512 5.23785C14.4764 4.45749 14.3462 4.03422 14.2364 3.75204C14.0909 3.37894 13.9186 3.11204 13.6386 2.83204C13.3803 2.56663 13.066 2.36237 12.7186 2.23422C12.4364 2.1244 12.0131 1.99422 11.2328 1.95858ZM6.9782 10.9368C7.54886 11.1743 8.1843 11.2064 8.77597 11.0275C9.36765 10.8486 9.87886 10.4698 10.2223 9.95585C10.5657 9.4419 10.7201 8.82467 10.659 8.20957C10.5979 7.59446 10.3251 7.01965 9.8873 6.58331C9.6082 6.30438 9.27072 6.09081 8.89917 5.95796C8.52763 5.82511 8.13124 5.7763 7.73856 5.81503C7.34588 5.85376 6.96667 5.97907 6.62824 6.18195C6.2898 6.38482 6.00056 6.66021 5.78133 6.98829C5.5621 7.31637 5.41833 7.68897 5.36039 8.07928C5.30245 8.46959 5.33176 8.86789 5.44623 9.2455C5.56069 9.62312 5.75746 9.97066 6.02236 10.2631C6.28726 10.5556 6.61371 10.7856 6.9782 10.9368ZM5.09238 5.56294C5.47421 5.18111 5.92752 4.87822 6.42642 4.67157C6.92531 4.46492 7.46002 4.35856 8.00002 4.35856C8.54002 4.35856 9.07473 4.46492 9.57363 4.67157C10.0725 4.87822 10.5258 5.18111 10.9077 5.56294C11.2895 5.94478 11.5924 6.39809 11.799 6.89698C12.0057 7.39587 12.1121 7.93058 12.1121 8.47058C12.1121 9.01058 12.0057 9.54529 11.799 10.0442C11.5924 10.5431 11.2895 10.9964 10.9077 11.3782C10.1365 12.1494 9.0906 12.5826 8.00002 12.5826C6.90944 12.5826 5.86353 12.1494 5.09238 11.3782C4.32122 10.6071 3.88799 9.56116 3.88799 8.47058C3.88799 7.38001 4.32122 6.3341 5.09238 5.56294ZM13.024 4.97094C13.1187 4.88169 13.1944 4.77435 13.2468 4.65529C13.2992 4.53623 13.3272 4.40787 13.3291 4.2778C13.331 4.14774 13.3067 4.01862 13.2578 3.89808C13.2089 3.77754 13.1363 3.66804 13.0444 3.57606C12.9524 3.48408 12.8429 3.4115 12.7224 3.36259C12.6018 3.31369 12.4727 3.28947 12.3426 3.29137C12.2126 3.29326 12.0842 3.32124 11.9651 3.37363C11.8461 3.42603 11.7387 3.50178 11.6495 3.5964C11.4759 3.78042 11.3809 4.02485 11.3845 4.2778C11.3882 4.53075 11.4904 4.77231 11.6692 4.95119C11.8481 5.13008 12.0897 5.2322 12.3426 5.23589C12.5956 5.23958 12.84 5.14454 13.024 4.97094Z" fill="white"/>
</svg>
