<svg width="24" height="24" viewBox="0 0 24 24" fill="none" xmlns="http://www.w3.org/2000/svg">
<path d="M0 0V24H24V0H0ZM2.18182 2.18182H21.8182V21.8182H2.18182V2.18182ZM14.9345 6.14073C13.0255 6.14073 11.4349 7.86218 11.8789 9.98618C10.6341 9.92379 9.41638 9.60016 8.30485 9.03631C7.19333 8.47247 6.21289 7.68104 5.42727 6.71346C5.14609 7.1922 4.99912 7.73788 5.00182 8.29309C5.00143 8.8086 5.12851 9.31621 5.37176 9.77072C5.615 10.2252 5.96686 10.6125 6.396 10.8982C5.90053 10.8808 5.4163 10.7458 4.98327 10.5044V10.5404C4.98182 11.2633 5.23058 11.9645 5.68734 12.5248C6.1441 13.0852 6.78071 13.4702 7.48909 13.6145C7.02765 13.7341 6.54603 13.7538 6.07636 13.6724C6.27673 14.2942 6.66651 14.8377 7.19114 15.227C7.71578 15.6163 8.349 15.8318 9.00218 15.8433C7.89428 16.7119 6.52638 17.1826 5.11855 17.1796C4.86643 17.1819 4.61439 17.1699 4.36364 17.1436C5.79781 18.0631 7.46658 18.5498 9.17018 18.5455C14.9258 18.5455 18.0764 13.7771 18.0764 9.63927C18.0764 9.50509 18.0764 9.36873 18.0655 9.23455C18.6782 8.78814 19.209 8.23892 19.6342 7.61127C19.0615 7.86372 18.4539 8.02812 17.832 8.09891C18.4847 7.71078 18.9734 7.09795 19.2065 6.37527C18.5934 6.73971 17.9216 6.99478 17.2211 7.12909C16.9282 6.816 16.5738 6.56665 16.1802 6.3966C15.7866 6.22654 15.3622 6.13944 14.9335 6.14073H14.9345Z" fill="white"/>
</svg>
