<svg width="16" height="17" viewBox="0 0 16 17" fill="none" xmlns="http://www.w3.org/2000/svg">
<path d="M9.57292 12.7102V11.0747C9.57292 10.7275 9.47222 10.5539 9.27083 10.5539C9.15278 10.5539 9.03819 10.6095 8.92708 10.7206V13.0539C9.03819 13.165 9.15278 13.2206 9.27083 13.2206C9.47222 13.2206 9.57292 13.0504 9.57292 12.7102ZM11.4896 11.4393H12.1771V11.0852C12.1771 10.731 12.0625 10.5539 11.8333 10.5539C11.6042 10.5539 11.4896 10.731 11.4896 11.0852V11.4393ZM5.54167 8.6685V9.39767H4.70833V13.8039H3.9375V9.39767H3.125V8.6685H5.54167ZM7.63542 9.981V13.8039H6.9375V13.3872C6.66667 13.6997 6.40278 13.856 6.14583 13.856C5.91667 13.856 5.77083 13.7588 5.70833 13.5643C5.66667 13.4463 5.64583 13.2588 5.64583 13.0018V9.981H6.33333V12.7935C6.33333 12.9602 6.33681 13.0504 6.34375 13.0643C6.35069 13.1685 6.40278 13.2206 6.5 13.2206C6.63889 13.2206 6.78472 13.1129 6.9375 12.8977V9.981H7.63542ZM10.2604 11.1372V12.6581C10.2604 13.0192 10.2361 13.2727 10.1875 13.4185C10.1042 13.7102 9.92014 13.856 9.63542 13.856C9.39236 13.856 9.15625 13.7136 8.92708 13.4289V13.8039H8.22917V8.6685H8.92708V10.3456C9.14931 10.0678 9.38542 9.92892 9.63542 9.92892C9.92014 9.92892 10.1042 10.0747 10.1875 10.3664C10.2361 10.5122 10.2604 10.7692 10.2604 11.1372ZM12.875 12.481V12.5747C12.875 12.7761 12.8681 12.9254 12.8542 13.0227C12.8333 13.1754 12.7812 13.3143 12.6979 13.4393C12.5104 13.7171 12.2326 13.856 11.8646 13.856C11.5035 13.856 11.2222 13.7241 11.0208 13.4602C10.875 13.2727 10.8021 12.9741 10.8021 12.5643V11.2206C10.8021 10.8109 10.8715 10.5122 11.0104 10.3247C11.2118 10.0609 11.4896 9.92892 11.8438 9.92892C12.1979 9.92892 12.4688 10.0609 12.6562 10.3247C12.8021 10.5261 12.875 10.8247 12.875 11.2206V12.0122H11.4896V12.6893C11.4896 13.0435 11.6076 13.2206 11.8438 13.2206C12.0104 13.2206 12.1146 13.1303 12.1562 12.9497C12.1562 12.9428 12.158 12.9185 12.1615 12.8768C12.1649 12.8352 12.1667 12.7779 12.1667 12.705V12.481H12.875ZM8.17708 3.89766V5.52266C8.17708 5.87683 8.06597 6.05391 7.84375 6.05391C7.62153 6.05391 7.51042 5.87683 7.51042 5.52266V3.89766C7.51042 3.53655 7.62153 3.356 7.84375 3.356C8.06597 3.356 8.17708 3.53655 8.17708 3.89766ZM13.7292 11.3247C13.7292 10.0956 13.6632 9.1928 13.5312 8.61642C13.4618 8.31086 13.3125 8.05565 13.0833 7.85079C12.8542 7.64593 12.5903 7.52614 12.2917 7.49141C11.3472 7.38725 9.91667 7.33516 8 7.33516C6.09028 7.33516 4.66319 7.38725 3.71875 7.49141C3.41319 7.52614 3.14757 7.64593 2.92188 7.85079C2.69618 8.05565 2.54861 8.31086 2.47917 8.61642C2.34028 9.22058 2.27083 10.1234 2.27083 11.3247C2.27083 12.547 2.34028 13.4497 2.47917 14.0331C2.54861 14.3317 2.69618 14.5852 2.92188 14.7935C3.14757 15.0018 3.40972 15.1234 3.70833 15.1581C4.65972 15.2622 6.09028 15.3143 8 15.3143C9.90972 15.3143 11.3403 15.2622 12.2917 15.1581C12.5903 15.1234 12.8524 15.0018 13.0781 14.7935C13.3038 14.5852 13.4514 14.3317 13.5208 14.0331C13.6597 13.4497 13.7292 12.547 13.7292 11.3247ZM5.86458 4.5435L6.80208 1.46016H6.02083L5.48958 3.49141L4.9375 1.46016H4.125C4.17361 1.61989 4.25347 1.85947 4.36458 2.17891L4.61458 2.89766C4.85764 3.61294 5.01736 4.16155 5.09375 4.5435V6.63725H5.86458V4.5435ZM8.875 5.38725V4.03308C8.875 3.6303 8.80208 3.32822 8.65625 3.12683C8.45486 2.86294 8.18403 2.731 7.84375 2.731C7.48958 2.731 7.21875 2.86294 7.03125 3.12683C6.88542 3.32822 6.8125 3.6303 6.8125 4.03308V5.38725C6.8125 5.79003 6.88542 6.09211 7.03125 6.2935C7.21875 6.55739 7.48958 6.68933 7.84375 6.68933C8.18403 6.68933 8.45486 6.55739 8.65625 6.2935C8.80208 6.106 8.875 5.80391 8.875 5.38725ZM10.7604 6.63725H11.4583V2.78308H10.7604V5.731C10.6076 5.94628 10.4618 6.05391 10.3229 6.05391C10.2188 6.05391 10.1632 5.99836 10.1562 5.88725C10.1493 5.87336 10.1458 5.78308 10.1458 5.61641V2.78308H9.44792V5.83516C9.44792 6.09211 9.46875 6.28308 9.51042 6.40808C9.58681 6.59558 9.73611 6.68933 9.95833 6.68933C10.2083 6.68933 10.4757 6.53308 10.7604 6.22058V6.63725ZM16 3.47058V13.4706C16 14.297 15.7066 15.0036 15.1198 15.5904C14.533 16.1772 13.8264 16.4706 13 16.4706H3C2.17361 16.4706 1.46701 16.1772 0.880208 15.5904C0.293403 15.0036 0 14.297 0 13.4706V3.47058C0 2.64419 0.293403 1.9376 0.880208 1.35079C1.46701 0.763984 2.17361 0.470581 3 0.470581H13C13.8264 0.470581 14.533 0.763984 15.1198 1.35079C15.7066 1.9376 16 2.64419 16 3.47058Z" fill="white"/>
</svg>
